# xmcd
#
# Track frame offsets:
#	150
#	34667
#	61308
#	80459
#	97943
#	134442
#	171922
#	200541
#	217113
#	237621
#	267366
#	285586
#
# Disc length: 4118 seconds
# Revision: 0
# Processed by: cddbd v1.5.2PL0 Copyright (c) Steve Scherf et al.
# Submitted via: dBpowerAMP V12.0
#
DISCID=b210140c
DTITLE=Jon Spear Band - Live Music Is Better
DYEAR=2016
DGENRE=Blues
TTITLE0=Devil's Highway
TTITLE1=Nothing to Nobody
TTITLE2=Shake Your Boogie
TTITLE3=Before the Bullets Fly
TTITLE4=Cissy Strut
TTITLE5=Have You Ever Loved a Woman
TTITLE6=Old Soul
TTITLE7=Blues About You Baby
TTITLE8=I Love My Skin
TTITLE9=Paid in Full
TTITLE10=Beginner at the Blues
TTITLE11=Live Music Is Better
EXTD=
EXTT0=
EXTT1=
EXTT2=
EXTT3=
EXTT4=
EXTT5=
EXTT6=
EXTT7=
EXTT8=
EXTT9=
EXTT10=
EXTT11=
PLAYORDER=
